<svg xmlns="http://www.w3.org/2000/svg" xmlns:xlink="http://www.w3.org/1999/xlink" version="1.1" x="0px" y="0px" viewBox="0 0 100 125" enable-background="new 0 0 100 100" xml:space="preserve"><g><g><path d="M43.882,8.381c-0.325,0-0.651-0.111-0.918-0.339c-0.595-0.508-0.665-1.4-0.157-1.995l2.607-3.052    c0.244-0.286,0.592-0.463,0.966-0.492l3.977-0.309c0.775-0.058,1.46,0.522,1.52,1.301c0.062,0.78-0.521,1.46-1.3,1.521    L47.185,5.28l-2.226,2.604C44.679,8.212,44.282,8.381,43.882,8.381L43.882,8.381z"/></g><g><path d="M57.052,8.381c-0.399,0-0.796-0.168-1.076-0.496L53.75,5.28l-3.393-0.264c-0.779-0.061-1.362-0.741-1.301-1.521    c0.061-0.779,0.742-1.358,1.521-1.301l3.977,0.309c0.374,0.029,0.723,0.206,0.966,0.492l2.606,3.052    c0.51,0.594,0.438,1.487-0.156,1.995C57.703,8.27,57.377,8.381,57.052,8.381L57.052,8.381z"/></g></g><g><path d="M53.366,56.186c-0.266,0-0.532-0.074-0.771-0.229c-0.655-0.427-0.841-1.303-0.414-1.958   c0.224-0.344,5.615-8.438,16.584-9.015c0.775-0.032,1.447,0.558,1.487,1.339c0.042,0.78-0.559,1.447-1.339,1.488   c-9.546,0.502-14.313,7.661-14.361,7.732C54.282,55.959,53.828,56.186,53.366,56.186L53.366,56.186z"/></g><g><g><path d="M59.803,54.795c-1.585,0-2.91-1.281-3.47-2.471c-0.042-0.09-0.069-0.185-0.079-0.282c-0.029-0.266,0.059-0.559,0.245-0.75    c0.116-0.118,2.903-2.926,8.016-3.795c0.396-0.066,0.788,0.137,0.958,0.5l0.616,1.31c0.348,0.74,0.386,1.571,0.108,2.341    c-0.276,0.769-0.837,1.385-1.578,1.731c-0.035,0.019-0.071,0.031-0.109,0.045l-4.101,1.303c-0.038,0.012-0.079,0.021-0.119,0.027    C60.129,54.781,59.966,54.795,59.803,54.795L59.803,54.795z"/></g></g><g><path d="M47.335,56.186c-0.462,0-0.914-0.226-1.185-0.64l0,0c-0.048-0.072-4.873-7.236-14.363-7.736   c-0.78-0.041-1.38-0.708-1.339-1.488s0.708-1.372,1.488-1.339c10.968,0.577,16.359,8.671,16.583,9.015   c0.427,0.655,0.242,1.531-0.414,1.958C47.868,56.111,47.601,56.186,47.335,56.186L47.335,56.186z"/></g><g><g><path d="M40.898,54.795c-0.163,0-0.327-0.014-0.486-0.042c-0.041-0.006-0.082-0.016-0.121-0.027l-4.101-1.303    c-0.037-0.014-0.074-0.026-0.109-0.045c-0.74-0.347-1.3-0.963-1.578-1.731c-0.278-0.77-0.239-1.601,0.109-2.341l0.616-1.31    c0.17-0.363,0.562-0.565,0.957-0.5c5.113,0.869,7.9,3.677,8.017,3.795c0.186,0.191,0.274,0.484,0.245,0.75    c-0.011,0.098-0.038,0.192-0.08,0.282C43.808,53.514,42.483,54.795,40.898,54.795L40.898,54.795z"/></g></g><path d="M86.396,61.559c0-0.168-0.017-0.334-0.052-0.492V27.298c0-6.271-3.399-12.335-9.572-17.076  c-5.533-4.251-12.635-6.789-18.995-6.789H42.482c-6.361,0-13.462,2.538-18.996,6.789c-6.172,4.741-9.572,10.805-9.572,17.076v34.26  c0,0.175,0.019,0.345,0.055,0.509c0.096,6.957,2.171,13.442,5.676,18.929l-0.263,3.346c-0.029,0.375,0.091,0.746,0.336,1.032  l3.587,4.191c0.039,0.045,0.085,0.08,0.128,0.119c0.011,0.011,0.016,0.025,0.027,0.035l4.191,3.588  c0.257,0.221,0.584,0.34,0.92,0.34c0.037,0,0.074-0.002,0.11-0.004l4.121-0.323c5.163,2.836,11.084,4.455,17.378,4.455  c6.282,0,12.194-1.61,17.349-4.436l3.869,0.304c0.037,0.002,0.074,0.004,0.111,0.004c0.336,0,0.662-0.119,0.92-0.34l4.19-3.588  c0.012-0.01,0.016-0.024,0.026-0.034c0.044-0.039,0.09-0.074,0.129-0.12l3.588-4.191c0.244-0.286,0.365-0.657,0.336-1.032  l-0.233-2.96C84.21,75.682,86.396,68.872,86.396,61.559z M81.641,27.298v25.579c-0.104,0.117-0.188,0.252-0.25,0.403  c-0.038,0.093-1.955,4.735-5.126,9.709l-0.551-0.043c-0.379-0.027-0.746,0.091-1.031,0.336l-4.191,3.587  c-0.028,0.024-0.04,0.059-0.066,0.085c-0.027,0.027-0.063,0.04-0.089,0.069l-3.587,4.192c-0.244,0.285-0.364,0.656-0.336,1.031  l0.04,0.503l-2.68-3.129c-0.025-0.029-0.061-0.041-0.087-0.068c-0.026-0.026-0.039-0.062-0.068-0.087l-3.863-3.306l-5.451-9.48  c0.616-10.346,1.878-30.898,3.198-48.543h0.274C68.519,8.136,81.641,16.979,81.641,27.298z M42.482,8.136h0.703  c0.449,6.678,2.316,34.707,2.958,48.217l-6.448,11.014l-2.453,2.099c-0.029,0.025-0.042,0.061-0.069,0.088  c-0.026,0.026-0.061,0.038-0.086,0.067l-3.016,3.522l0.07-0.896c0.03-0.375-0.09-0.746-0.335-1.031l-3.587-4.192  c-0.025-0.029-0.061-0.042-0.087-0.068c-0.026-0.026-0.039-0.062-0.067-0.086l-4.191-3.587c-0.286-0.245-0.656-0.363-1.032-0.336  l-1.236,0.097c-2.032-2.893-3.771-5.788-4.99-8.005v-27.74C18.618,16.979,31.74,8.136,42.482,8.136z"/></svg>