<svg xmlns="http://www.w3.org/2000/svg" viewBox="0 0 488.46046 238.8118875" x="0px" y="0px"><title>Bat-RAD</title><path d="M250,349.2128a4.228,4.228,0,0,1-4.15531-3.4449c-2.17769-11.5405-7.96869-20.5713-17.2119-26.8408-25.3515-17.2021-68.4082-9.0747-68.84279-8.999a4.23654,4.23654,0,0,1-4.90231-3.1006c-10.34669-40.3491-64.1064-46.0767-64.6484-46.1304A4.23626,4.23626,0,0,1,86.46,257.0399C81.27929,217.6454,9.5166,195.785,8.7891,195.57017a4.23078,4.23078,0,0,1-2.9444-4.84131,4.30567,4.30567,0,0,1,4.5117-3.42526c50.57129,4.29929,101.01079-28.125,101.51369-28.4522a4.22578,4.22578,0,0,1,6.0352,1.5454c27.6416,51.5992,83.3691,65.7569,99.0332,68.7842l4.956-40.2441a4.2295,4.2295,0,0,1,7.9688-1.3965l11.2549,22.15331h17.7636l11.2549-22.15331a4.17631,4.17631,0,0,1,4.502-2.251,4.23331,4.23331,0,0,1,3.4668,3.6475l4.956,40.2392c15.669-3.0517,71.44051-17.2754,99.0332-68.7793a4.22578,4.22578,0,0,1,6.0352-1.5454c.5078.3272,50.94239,32.74172,101.51369,28.4522a4.28685,4.28685,0,0,1,4.5117,3.42526,4.23215,4.23215,0,0,1-2.9444,4.84131c-.7226.21485-72.49509,22.12163-77.67088,61.46973a4.241,4.241,0,0,1-3.77931,3.6572c-.5419.0537-54.3261,5.874-64.6484,46.1304a4.20826,4.20826,0,0,1-4.90229,3.1006c-.43461-.0806-43.56451-8.1665-68.86231,9.0112-9.2286,6.2695-15.01469,15.2954-17.1924,26.8286A4.2279,4.2279,0,0,1,250,349.2128Zm-66.26951-49.773c15.4101,0,34.8486,2.4438,49.6484,12.4878A47.43765,47.43765,0,0,1,250,331.1732a47.43745,47.43745,0,0,1,16.62109-19.2456c23.8184-16.1597,59.6338-12.644,71.3818-10.9326,12.1192-37.2339,55.3614-46.4112,67.7002-48.2935,5.9082-28.1958,38.99419-47.22654,61.61619-57.15086-36.82128-3.47168-69.05759-20.80324-79.956-27.24364-35.0342,60.4101-104.4434,69.6069-107.4414,69.9756a4.20345,4.20345,0,0,1-4.7168-3.6792l-3.8037-30.88137L265.249,215.8363a4.22226,4.22226,0,0,1-3.76951,2.3144h-22.959a4.22232,4.22232,0,0,1-3.76949-2.3144L228.59859,203.722l-3.8037,30.88137a4.191,4.191,0,0,1-4.7168,3.6792c-2.998-.3687-72.4072-9.5655-107.4414-69.9781-10.8935,6.4429-43.13469,23.772-79.956,27.24614,22.622,9.92432,55.708,28.95506,61.6162,57.15086,12.3388,1.8823,55.581,11.0596,67.7002,48.2935A154.28107,154.28107,0,0,1,183.73049,299.4398Z" transform="translate(-5.76976 -158.16329)"/></svg>