<svg xmlns="http://www.w3.org/2000/svg" data-name="Layer 1" viewBox="0 0 440.4 549.5" x="0px" y="0px"><path d="M353.64,311.51h0a23.4,23.4,0,0,1-23.4,23.39H110.16a23.4,23.4,0,0,1-23.4-23.39h0a23.4,23.4,0,0,1,23.4-23.4,11.22,11.22,0,0,0,11.22-11.22V186.77a98.82,98.82,0,0,1,197.64,0v90.12a11.22,11.22,0,0,0,11.22,11.22A23.4,23.4,0,0,1,353.64,311.51Z"/><path d="M252.36,340A32.16,32.16,0,1,1,188,340Z"/><path d="M220.2,83a103.39,103.39,0,0,0-19.32,1.81,19.44,19.44,0,0,1,38.64,0A103.39,103.39,0,0,0,220.2,83Z"/></svg>