<svg xmlns="http://www.w3.org/2000/svg" viewBox="0 0 32 40" x="0px" y="0px"><title>Artboard 4</title><g data-name="Layer 2"><path d="M26.81,10.29a3.68,3.68,0,1,0-3.28,0,5.15,5.15,0,0,0-2.37,1.66,6,6,0,0,0-3.75-2.77,4.22,4.22,0,1,0-2.82,0,6,6,0,0,0-3.75,2.77,5.15,5.15,0,0,0-2.37-1.66,3.68,3.68,0,1,0-3.28,0,5.16,5.16,0,0,0-3.52,4.87V26.59a2.08,2.08,0,0,0,2.08,2.08H10v0A2.29,2.29,0,0,0,12.29,31h7.42A2.29,2.29,0,0,0,22,28.71v0h6.26a2.08,2.08,0,0,0,2.08-2.08V15.17A5.16,5.16,0,0,0,26.81,10.29Z"/></g></svg>