<svg xmlns="http://www.w3.org/2000/svg" xmlns:xlink="http://www.w3.org/1999/xlink" version="1.1" x="0px" y="0px" viewBox="0 0 100 125" enable-background="new 0 0 100 100" xml:space="preserve"><path d="M94.581,48.655C93.796,47.517,75.068,20.793,50,20.793c-25.07,0-43.796,26.724-44.581,27.862  c-0.559,0.809-0.559,1.88,0,2.689C6.204,52.48,24.93,79.207,50,79.207c25.068,0,43.796-26.725,44.581-27.861  C95.141,50.535,95.141,49.464,94.581,48.655z M50,70.842c-11.513,0-20.842-9.328-20.842-20.842c0-11.507,9.33-20.842,20.842-20.842  c11.512,0,20.842,9.335,20.842,20.842C70.842,61.514,61.512,70.842,50,70.842z"/><path d="M50,37.687c-6.798,0-12.315,5.511-12.315,12.313c0,6.807,5.517,12.316,12.315,12.316c6.805,0,12.316-5.508,12.316-12.316  C62.316,43.198,56.807,37.687,50,37.687z"/></svg>