<svg xmlns="http://www.w3.org/2000/svg" xmlns:xlink="http://www.w3.org/1999/xlink" xmlns:serif="http://www.serif.com/" viewBox="0 0 32 40" version="1.1" xml:space="preserve" style="" x="0px" y="0px" fill-rule="evenodd" clip-rule="evenodd" stroke-linejoin="round" stroke-miterlimit="2"><g transform="matrix(1,0,0,1,-240,-48)"><path d="M256,49C264.279,49 271,55.721 271,64C271,72.279 264.279,79 256,79C247.721,79 241,72.279 241,64C241,55.721 247.721,49 256,49ZM254,55L254,63C254,63.796 254.316,64.559 254.879,65.121C255.441,65.684 256.204,66 257,66L264,66C264.552,66 265,65.552 265,65C265,64.448 264.552,64 264,64L257,64C256.735,64 256.48,63.895 256.293,63.707C256.105,63.52 256,63.265 256,63L256,55C256,54.448 255.552,54 255,54C254.448,54 254,54.448 254,55Z"/></g></svg>