<svg xmlns="http://www.w3.org/2000/svg" xmlns:xlink="http://www.w3.org/1999/xlink" version="1.1" x="0px" y="0px" viewBox="0 0 100 125" style="enable-background:new 0 0 100 100;" xml:space="preserve"><style type="text/css">
	.st0{fill-rule:evenodd;clip-rule:evenodd;}
</style><path class="st0" d="M51.238,9.097l16.665,12.364v-3.017c0-1.116,0.905-2.02,2.02-2.02h11.755c1.116,0,2.02,0.905,2.02,2.02V33.18  l14.527,10.777c1.558,1.155,0.728,3.63-1.2,3.632v0.006h-8.492v41.708c0,1.116-0.905,2.02-2.02,2.02H65.507  c-1.116,0-2.02-0.905-2.02-2.02V64.954c0-1.517-1.238-2.755-2.755-2.755H39.277c-1.517,0-2.755,1.238-2.755,2.755v24.349  c0,1.116-0.905,2.02-2.02,2.02H13.495c-1.116,0-2.02-0.905-2.02-2.02V47.595H2.983c-1.912,0-2.86-2.512-1.072-3.733l46.894-34.79  C49.546,8.522,50.542,8.558,51.238,9.097z"/></svg>