<svg xmlns="http://www.w3.org/2000/svg" xmlns:xlink="http://www.w3.org/1999/xlink" version="1.1" x="0px" y="0px" viewBox="0 0 98.295 109.86375000000001" enable-background="new 0 0 98.295 87.891" xml:space="preserve"><path d="M62.521,55.075c-0.084,0.331,0.055,0.625,0.332,0.834c0.131,0.1,0.287,0.145,0.445,0.145c0.189,0,0.387-0.062,0.553-0.168  c0.303-0.188,7.439-4.729,8.551-10.949c0.471-2.646-0.215-5.19-2.043-7.56c-4.928-6.386-4.928-6.386-5.533-6.386  c-0.453,0-0.84,0.36-0.875,0.812c-0.002,0.021-0.004,0.071-0.004,0.147c-0.008,1.998-0.609,3.714-1.652,4.708  c-0.465,0.443-0.93,0.869-1.381,1.281c-3.305,3.03-6.426,5.893-2.84,10.167C62.081,52.889,62.479,54.791,62.521,55.075z   M64.224,48.908c-1.924,0-3.488-1.564-3.488-3.487c0-0.037,0.006-0.072,0.006-0.109h1.74c-0.002,0.037-0.012,0.072-0.012,0.109  c0,0.967,0.787,1.752,1.754,1.752s1.752-0.785,1.752-1.752c0-0.037-0.01-0.072-0.012-0.109h1.738  c0.002,0.037,0.008,0.072,0.008,0.109C67.71,47.344,66.146,48.908,64.224,48.908z M59.847,26.613  c-0.16-0.575,0.008-1.397,0.969-1.982c1.385-0.842,2.877-1.27,4.439-1.27c0.695,0,1.406,0.088,2.107,0.26  c2.506,0.611,4.098,2.191,4.256,4.227c0.02,0.241-0.064,0.498-0.229,0.675c-0.164,0.179-0.398,0.28-0.643,0.28  c-0.451,0-0.682-0.312-0.805-0.479c-0.324-0.445-1.314-1.798-3.637-1.798c-1.135,0-2.434,0.325-3.861,0.969  c-0.34,0.152-0.68,0.229-1.008,0.229l0,0C60.673,27.722,60.032,27.277,59.847,26.613z M38.159,55.885  c0.166,0.105,0.361,0.168,0.553,0.168c0.158,0,0.314-0.045,0.445-0.145c0.277-0.209,0.416-0.503,0.332-0.834  c0.039-0.284,0.439-2.187,4.447-6.968c3.586-4.274,0.465-7.137-2.84-10.167c-0.451-0.412-0.916-0.838-1.383-1.281  c-1.041-0.993-1.645-2.71-1.65-4.708c0-0.077-0.002-0.126-0.004-0.147c-0.035-0.452-0.422-0.812-0.877-0.812  c-0.604,0-0.604,0-5.531,6.386c-1.828,2.368-2.516,4.913-2.043,7.56C30.72,51.156,37.856,55.696,38.159,55.885z M37.788,48.908  c-1.924,0-3.486-1.564-3.486-3.487c0-0.037,0.004-0.072,0.004-0.109h1.74c0,0.037-0.012,0.072-0.012,0.109  c0,0.967,0.787,1.752,1.754,1.752s1.752-0.785,1.752-1.752c0-0.037-0.01-0.072-0.012-0.109h1.74c0,0.037,0.006,0.072,0.006,0.109  C41.274,47.344,39.712,48.908,37.788,48.908z M82.175,48.895c1.805-3.533,2.793-7.97,2.793-12.584c0-5.978-1.629-11.525-4.48-15.298  c0.105-0.779,0.158-1.564,0.158-2.342c0-9.544-7.764-17.309-17.307-17.309H38.38c-9.543,0-17.309,7.765-17.309,17.309  c0,0.777,0.055,1.562,0.16,2.342c-2.852,3.772-4.479,9.32-4.479,15.298c0,4.615,0.986,9.051,2.791,12.584  c-2.699,2.289-4.232,5.449-4.232,8.775c0,1.738,0.404,3.413,1.201,4.981c0.023,0.062,0.057,0.121,0.094,0.179  c1.822,2.675,2.787,5.795,2.787,9.024c0,2.166-0.43,4.272-1.275,6.261c-0.113,0.268-0.088,0.573,0.074,0.817  c0.16,0.242,0.434,0.39,0.725,0.39h16.424l6.135,7.229c0.166,0.195,0.406,0.307,0.662,0.307h17.871c0.256,0,0.496-0.11,0.662-0.307  l6.135-7.229h15.998c0.293,0,0.562-0.146,0.725-0.39c0.16-0.244,0.189-0.551,0.074-0.817c-0.846-1.987-1.275-4.095-1.275-6.261  c0-3.229,0.965-6.351,2.787-9.024c0.037-0.056,0.068-0.113,0.09-0.176c0.801-1.568,1.203-3.244,1.203-4.984  C86.407,54.344,84.872,51.184,82.175,48.895z M75.356,66.435L58.585,83.444h-6.68H43.22L26.446,66.435V42.732l2.121-4.875  c0.047-0.108,0.072-0.227,0.072-0.345V22.894c0.002-0.027,0.004-0.057,0.004-0.086c0-4.271,3.475-7.745,7.746-7.745h29.023  c4.27,0,7.744,3.476,7.744,7.745c0,0.029,0.002,0.059,0.004,0.085v14.618c0,0.119,0.025,0.236,0.072,0.345l2.123,4.875V66.435  L75.356,66.435z M43.571,58.49c0,1.272,1.035,2.31,2.309,2.31h1.203c0.113,0,0.229-0.012,0.338-0.029  c0.902,0.895,2.143,1.445,3.512,1.445c1.365,0,2.604-0.552,3.508-1.443c0.109,0.017,0.221,0.027,0.336,0.027h1.201  c1.273,0,2.309-1.036,2.309-2.31c0-1.202-0.922-2.19-2.096-2.299c-0.004-0.01-0.006-0.02-0.012-0.028  c-1.189-2.414-1.896-6.388-1.896-10.626c0-0.913,0.033-1.823,0.098-2.704c0.035-0.479-0.324-0.896-0.803-0.931  c-0.475-0.034-0.893,0.324-0.928,0.804c-0.068,0.923-0.102,1.875-0.102,2.831c0,2.589,0.258,5.099,0.727,7.268  c-0.699-0.372-1.496-0.587-2.342-0.587c-0.855,0-1.656,0.216-2.359,0.594c0.471-2.17,0.73-4.683,0.73-7.273  c0-0.956-0.035-1.908-0.104-2.831c-0.035-0.479-0.459-0.838-0.928-0.804c-0.48,0.035-0.836,0.451-0.803,0.931  c0.064,0.881,0.098,1.791,0.098,2.704c0,4.238-0.709,8.212-1.896,10.626c-0.006,0.01-0.008,0.02-0.012,0.028  C44.487,56.303,43.571,57.292,43.571,58.49z M50.933,54.977c0.635,0,1.152,0.519,1.152,1.152c0,0.637-0.52,1.154-1.152,1.154  c-0.637,0-1.154-0.519-1.154-1.154C49.776,55.495,50.296,54.977,50.933,54.977z M72.485,54.889c-0.387-0.233-0.887-0.133-1.15,0.232  c-0.039,0.053-3.883,5.3-9.203,8.205c-3.227,1.763-17.824,2.416-22.244,0c-5.322-2.905-9.166-8.152-9.203-8.205  c-0.266-0.365-0.766-0.468-1.152-0.232c-0.387,0.232-0.529,0.726-0.328,1.127c0.215,0.43,5.262,10.566,7.646,13.701  c0.148,0.196,0.307,0.411,0.471,0.64c1.801,2.485,4.803,6.636,13.572,6.762c0.02,0,0.039,0,0.059,0c0.02,0.002,0.037,0,0.057,0  s0.039,0.002,0.059,0c0.021,0,0.039,0,0.061,0c8.768-0.126,11.77-4.275,13.568-6.762c0.166-0.229,0.322-0.442,0.473-0.642  c2.387-3.133,7.434-13.271,7.646-13.699C73.015,55.615,72.87,55.122,72.485,54.889z M50.979,70.712  c-4.994,0-9.549-1.004-12.104-2.562h24.209C60.528,69.708,55.976,70.712,50.979,70.712z M31.3,28.521  c-0.164-0.177-0.248-0.434-0.23-0.674c0.16-2.036,1.75-3.615,4.256-4.227c0.703-0.171,1.412-0.26,2.109-0.26  c1.561,0,3.057,0.428,4.438,1.27c0.961,0.584,1.131,1.407,0.971,1.981c-0.188,0.665-0.826,1.11-1.592,1.11  c-0.328,0-0.67-0.077-1.01-0.229c-1.428-0.644-2.727-0.969-3.859-0.969c-2.32,0-3.312,1.354-3.639,1.797  c-0.123,0.169-0.352,0.48-0.805,0.48c-0.002,0-0.002,0-0.004,0C31.694,28.801,31.464,28.698,31.3,28.521z"/></svg>