<svg xmlns="http://www.w3.org/2000/svg" xmlns:svg="http://www.w3.org/2000/svg" viewBox="0 0 24 30" version="1.1" x="0px" y="0px"><g><path style="color:#000000;" d="M 7.5 12 C 5.5729295 12 4 13.57293 4 15.5 L 4 20.5 C 4 21.322503 4.6774968 22 5.5 22 L 18.5 22 C 19.322503 22 20 21.322503 20 20.5 L 20 15.5 C 20 13.57293 18.42707 12 16.5 12 L 15.5 12 L 8.5 12 L 7.5 12 z M 9.5 13 L 14.5 13 L 12.400391 15.800781 C 12.3057 15.927035 12.157817 16 12 16 C 11.842183 16 11.6943 15.92704 11.599609 15.800781 L 9.5 13 z M 7.5 18 A 0.5 0.5 0 0 1 8 18.5 L 8 21 L 7 21 L 7 18.5 A 0.5 0.5 0 0 1 7.5 18 z M 16.5 18 A 0.5 0.5 0 0 1 17 18.5 L 17 21 L 16 21 L 16 18.5 A 0.5 0.5 0 0 1 16.5 18 z " fill="#000000" stroke-linecap="round" stroke-linejoin="round"/><path style="color:#000000;" d="M 12 2 C 9.5206459 2 7.5 4.0206459 7.5 6.5 C 7.5 8.9793541 9.5206459 11 12 11 C 14.479355 11 16.5 8.9793541 16.5 6.5 C 16.5 4.0206459 14.479355 2 12 2 z " fill="#000000" stroke-linecap="round" stroke-linejoin="round"/></g></svg>