<svg xmlns="http://www.w3.org/2000/svg" xmlns:xlink="http://www.w3.org/1999/xlink" version="1.1" x="0px" y="0px" viewBox="0 0 128 160" enable-background="new 0 0 128 128" xml:space="preserve"><path d="M98.375,24.848c-2.931-3.557-8.028-4.353-8.028-4.353S86.525,16.881,80,14.883c-7.25-2.22-29.826-1.854-40.875,3.125  S27.27,28.515,26.368,33.258c-0.28,1.472-0.415,4.154-0.459,7.273c-2.372-1.678-4.128-3.607-4.128-3.607s-2.208,3.287-0.902,5.627  c1.59,2.85,3.108,4.266,4.422,4.896c-0.142,0.033-0.287,0.052-0.436,0.039c-1.804-0.158-5.562-0.474-5.562-0.474  s0.15,4.584,1.804,6.639c0.923,1.147,3.062,2.588,5.139,3.638c0.043,0.868,0.085,1.583,0.123,2.094  c0.107,1.467,0.378,3.591,0.682,5.716l-0.68,27.902c0,0.01,0.002,0.02,0.002,0.03l-0.002,0.077  c-0.057,2.355,1.623,5.088,3.735,6.133l15.537,7.708c2.112,1.045,5.768,1.976,8.124,1.976h20.468c2.356,0,6.012-0.929,8.124-1.973  l15.537-7.732c2.112-1.045,3.793-3.841,3.735-6.196l-0.692-28.374c0.263-3.269,0.529-6.58,0.693-8.642  C102.279,47.883,101.306,28.405,98.375,24.848z M95.153,93.882l-15.469,7.698c-1.341,0.663-4.098,1.345-5.45,1.345H53.766  c-1.351,0-4.107-0.683-5.462-1.354l-15.531-7.706c-0.101-0.084-0.345-0.473-0.402-0.704l0.851-34.937  c1.158-1.312,2.399-2.345,3.442-2.683c0.513-0.166,1.169-0.467,1.894-0.824c-1.847,2.488-3.504,4.885-3.865,5.921  c-0.895,2.565-1.108,4.667-1.108,4.667s1.597,10.19,3.386,13.025c1.789,2.835,3.337,6.046,3.337,6.046l-1.164-5.091l5.942,4.706  h4.217l12.652-5.4H64h2.045l12.652,5.4h4.217l5.942-4.706l-1.164,5.091c0,0,1.548-3.211,3.337-6.046  c1.789-2.835,3.386-13.025,3.386-13.025s-0.214-2.102-1.108-4.667S83.58,47.175,83.58,47.175l4.811,10.16v1.97  c0,0-8.416,2.706-12.378,6.621S66.3,71.461,66.3,71.461H64h-2.3c0,0-5.751-1.62-9.713-5.535s-12.378-6.621-12.378-6.621v-1.97  l1.958-4.136c2.78-1.369,5.468-2.402,5.468-0.265c0,3.557-4.059,4.742-4.059,4.742s7.667,0,15.559-2.371  c7.892-2.371,13.755-8.773,17.814-10.433s11.951-0.474,17.588,6.639c0.245,0.309,0.477,0.641,0.703,0.982l0.99,40.593  C95.576,93.319,95.334,93.724,95.153,93.882z M39.248,65.123l20.39,8.793l-1.869,3.061l-18.77-3.374L39.248,65.123z M68.362,73.916  l20.39-8.793l0.25,8.48L76.333,75.88l-6.102,1.097L68.362,73.916z"/></svg>