<svg xmlns="http://www.w3.org/2000/svg" xmlns:xlink="http://www.w3.org/1999/xlink" xml:space="preserve" version="1.1" style="shape-rendering:geometricPrecision;text-rendering:geometricPrecision;image-rendering:optimizeQuality;" viewBox="0 0 451 563.75" x="0px" y="0px" fill-rule="evenodd" clip-rule="evenodd"><defs><style type="text/css">
   
    .fil0 {fill:black;fill-rule:nonzero}
   
  </style></defs><g><path class="fil0" d="M48 48c63,-64 166,-64 229,0 60,59 64,153 12,217l35 35 5 -6c3,-2 7,-2 10,0l103 104c12,12 12,32 0,44l0 0c-12,12 -32,12 -44,0l-104 -103c-2,-3 -2,-7 0,-10l6 -5 -35 -35c-64,52 -158,48 -217,-12 -64,-63 -64,-166 0,-229zm363 363c4,-5 12,-5 16,0 5,4 5,12 0,16 -4,5 -12,5 -16,0 -5,-4 -5,-12 0,-16zm-339 -339c-51,50 -51,131 0,182 50,50 131,50 182,0 50,-51 50,-132 0,-182 -51,-51 -132,-51 -182,0z"/><path class="fil0" d="M100 100c-3,3 -9,3 -12,0 -3,-3 -3,-9 0,-12 41,-41 108,-41 149,0 3,3 3,9 0,12 -3,3 -8,3 -12,0 -34,-35 -91,-35 -125,0z"/></g></svg>