<svg xmlns="http://www.w3.org/2000/svg" viewBox="0 0 24 30" x="0px" y="0px"><defs><style>.cls-1{stroke-width:0px;}</style></defs><path class="cls-1" d="m14.25,12c0,1.241-1.009,2.25-2.25,2.25s-2.25-1.009-2.25-2.25,1.009-2.25,2.25-2.25,2.25,1.009,2.25,2.25Zm7.072,2.235c.242.24.292.613.122.908l-2,3.464c-.177.306-.546.448-.881.338l-.737-.239c-.601-.194-1.233-.133-1.785.172-.552.306-.939.811-1.093,1.423l-.22.881c-.083.334-.383.568-.728.568h-4c-.344,0-.644-.234-.728-.568l-.22-.881c-.153-.611-.541-1.117-1.093-1.422-.551-.305-1.186-.366-1.785-.172l-.737.239c-.335.109-.704-.032-.881-.338l-2-3.464c-.17-.295-.121-.668.122-.908l.643-.637c.43-.426.666-.994.666-1.599s-.236-1.173-.666-1.599l-.643-.637c-.242-.24-.292-.613-.122-.908l2-3.464c.177-.306.546-.447.881-.338l.737.239c.6.195,1.234.133,1.785-.172.552-.306.939-.811,1.093-1.423l.216-.866c.021-.094.06-.181.112-.257.035-.051.076-.097.122-.138,0,0,0,0,0,0,.13-.115.301-.186.488-.188h4.017c.188.002.358.073.488.188,0,0,0,.001,0,0,.046.041.086.086.122.138.052.076.091.163.112.257l.216.866c.153.611.541,1.117,1.093,1.422.552.305,1.185.367,1.785.172l.737-.239c.334-.109.704.032.881.338l2,3.464c.17.295.121.668-.122.908l-.643.637c-.43.426-.666.994-.666,1.599s.236,1.173.666,1.599l.643.637Zm-5.572-2.235c0-2.068-1.682-3.75-3.75-3.75s-3.75,1.682-3.75,3.75,1.682,3.75,3.75,3.75,3.75-1.682,3.75-3.75Z"/></svg>