<svg xmlns="http://www.w3.org/2000/svg" xmlns:xlink="http://www.w3.org/1999/xlink" version="1.1" x="0px" y="0px" viewBox="0 0 100 125" style="enable-background:new 0 0 100 100;" xml:space="preserve"><path d="M77.8,37.5c-3.3,0-6.3,1.3-8.5,3.5L33.9,27c0.3-1.1,0.5-2.2,0.5-3.3c0-6.7-5.5-12.2-12.2-12.2c-6.7,0-12.2,5.5-12.2,12.2  s5.5,12.2,12.2,12.2c3.2,0,6.1-1.3,8.3-3.3l35.6,14.1c-0.3,1-0.4,2-0.4,3.1c0,1.1,0.2,2.1,0.4,3.1L30,67c-2.1-1.8-4.8-2.9-7.8-2.9  c-6.7,0-12.2,5.5-12.2,12.2c0,6.7,5.5,12.2,12.2,12.2c6.7,0,12.2-5.5,12.2-12.2c0-1.3-0.3-2.6-0.7-3.8l35.6-14.1  c2.2,2.1,5.2,3.5,8.5,3.5c6.7,0,12.2-5.5,12.2-12.2S84.5,37.5,77.8,37.5z"/></svg>