<svg xmlns="http://www.w3.org/2000/svg" xmlns:xlink="http://www.w3.org/1999/xlink" version="1.1" x="0px" y="0px" viewBox="0 0 128 160" enable-background="new 0 0 128 128" xml:space="preserve"><g><path d="M100.86,61.414c0.353-4.985,0.673-11.769,0.753-16.231c0.007-0.409,0.019-2.633,0.015-3.031   c-0.009-0.996-0.034,1.862-0.076,0.913c-0.067-1.519-0.335-6.778-0.509-8.155c-0.542-4.285-0.554-6.785-5.173-11.035   s-14.305-6.236-16.198-6.711c-0.21-0.053-0.418-0.102-0.623-0.148c-4.51-1.007-7.68-0.368-7.68-0.368s-0.002-0.002-0.005-0.004v0   c-0.003-0.002-0.007-0.006-0.012-0.011c-0.002-0.002-0.004-0.004-0.007-0.005c-0.004-0.004-0.009-0.007-0.014-0.012   c-0.005-0.004-0.01-0.008-0.015-0.012c-0.005-0.004-0.01-0.007-0.015-0.011c-0.007-0.005-0.015-0.011-0.024-0.017   c-0.006-0.004-0.012-0.008-0.018-0.012c-0.011-0.007-0.021-0.015-0.034-0.023c-0.004-0.003-0.009-0.006-0.013-0.008   c-0.07-0.045-0.167-0.102-0.298-0.169c-0.003-0.001-0.005-0.003-0.008-0.004c-0.032-0.016-0.066-0.033-0.101-0.05   c-0.006-0.003-0.011-0.005-0.017-0.008c-0.036-0.017-0.074-0.035-0.114-0.053c-0.005-0.003-0.011-0.005-0.017-0.008   c-0.271-0.122-0.638-0.265-1.127-0.421c-0.001,0-0.002,0-0.002-0.001c-0.08-0.026-0.164-0.051-0.251-0.078   c-0.004-0.001-0.009-0.003-0.013-0.004c-0.087-0.026-0.178-0.053-0.272-0.079c-0.002-0.001-0.004-0.001-0.006-0.002   c-0.576-0.164-1.284-0.337-2.152-0.512c-0.017-0.003-0.033-0.007-0.05-0.01c-0.132-0.026-0.268-0.053-0.407-0.079   c-0.021-0.004-0.042-0.008-0.064-0.012c-0.142-0.027-0.286-0.053-0.436-0.08c-0.014-0.003-0.029-0.005-0.043-0.008   c-0.65-0.115-1.373-0.23-2.178-0.342c-0.008-0.001-0.016-0.002-0.025-0.004v0c-1.002-0.139-2.127-0.273-3.396-0.397   c-9.659-0.947-21.061,6.496-24.683,8.797c-3.622,2.301-4.418,4.881-4.418,4.881s-2.35,0.476-4.765,3.859   c-1.832,2.567-0.232,24.392,0.647,34.784L26.37,93.001c0,0.01,0.002,0.02,0.002,0.03l-0.002,0.077   c-0.057,2.355,1.623,5.088,3.735,6.133l15.537,7.708c2.112,1.045,5.768,1.976,8.124,1.976h20.468c2.356,0,6.012-0.929,8.124-1.973   l15.537-7.732c2.112-1.045,3.793-3.841,3.735-6.196L100.86,61.414z M95.153,93.882l-15.469,7.698   c-1.341,0.663-4.098,1.345-5.45,1.345H53.766c-1.351,0-4.108-0.683-5.464-1.354l-15.531-7.706c-0.1-0.084-0.344-0.473-0.401-0.705   l0.98-40.266c0.117-0.366,0.234-0.734,0.323-1.124c1.053-4.569,1.577-10.369,1.577-10.369s3.974-0.561,10.332,1.662   c6.357,2.223,11.64,5.816,11.64,5.816s-1.701,3.523,0,4.788c1.058,0.787,4.25,0.985,6.737,1.609   c0.043,0.011,0.085,0.022,0.128,0.033c0.071,0.018,0.142,0.037,0.212,0.057c0.045,0.013,0.09,0.025,0.135,0.038   c0.067,0.019,0.133,0.039,0.199,0.059c0.043,0.013,0.086,0.026,0.128,0.04c0.074,0.023,0.146,0.048,0.217,0.072   c0.031,0.011,0.063,0.021,0.094,0.032c0.099,0.035,0.196,0.072,0.29,0.11c0.027,0.011,0.053,0.023,0.079,0.034   c0.068,0.028,0.135,0.057,0.2,0.087c0.033,0.015,0.065,0.031,0.098,0.047c0.057,0.028,0.113,0.056,0.168,0.085   c0.031,0.016,0.062,0.033,0.093,0.05c0.057,0.032,0.112,0.065,0.166,0.099c0.023,0.014,0.047,0.028,0.07,0.043   c0.074,0.049,0.145,0.099,0.211,0.151c0.012,0.009,0.022,0.02,0.034,0.029c0.054,0.044,0.105,0.088,0.153,0.134   c0.02,0.019,0.038,0.039,0.057,0.058c0.038,0.039,0.074,0.078,0.107,0.119c0.018,0.022,0.036,0.043,0.052,0.066   c0.032,0.042,0.062,0.086,0.089,0.131c0.013,0.02,0.026,0.04,0.038,0.061c0.037,0.065,0.07,0.132,0.097,0.202l0,0   c0.033,0.085,0.054,0.171,0.069,0.258c0.005,0.028,0.006,0.057,0.009,0.085c0.006,0.06,0.01,0.12,0.009,0.181   c-0.001,0.033-0.004,0.067-0.007,0.101c-0.005,0.058-0.013,0.116-0.024,0.175c-0.007,0.034-0.013,0.069-0.022,0.103   c-0.015,0.062-0.035,0.124-0.057,0.187c-0.011,0.031-0.02,0.061-0.032,0.092c-0.033,0.084-0.071,0.169-0.115,0.254   c-0.005,0.009-0.008,0.018-0.013,0.027c-0.049,0.094-0.105,0.189-0.166,0.284c-0.019,0.029-0.04,0.059-0.06,0.088   c-0.044,0.066-0.09,0.132-0.139,0.198c-0.026,0.035-0.053,0.07-0.08,0.104c-0.048,0.062-0.098,0.124-0.15,0.186   c-0.029,0.035-0.058,0.069-0.089,0.104c-0.057,0.065-0.116,0.13-0.176,0.194c-0.028,0.03-0.055,0.059-0.083,0.089   c-0.082,0.085-0.166,0.169-0.253,0.253c-0.008,0.008-0.016,0.017-0.025,0.025c-0.098,0.094-0.2,0.188-0.303,0.281   c-0.023,0.02-0.046,0.04-0.069,0.06c-0.081,0.071-0.162,0.142-0.245,0.212c-0.031,0.026-0.063,0.053-0.095,0.079   c-0.078,0.065-0.156,0.129-0.235,0.192c-0.031,0.025-0.062,0.05-0.094,0.075c-0.085,0.067-0.17,0.133-0.255,0.198   c-0.024,0.018-0.048,0.037-0.072,0.055c-0.226,0.171-0.453,0.336-0.675,0.491c-1.237,0.866-2.323,1.458-2.323,1.458   s0.892-0.026,2.323-0.268v0c0.001,0,0.002,0,0.002,0c0.354-0.06,0.739-0.133,1.153-0.223c0.014-0.003,0.028-0.006,0.042-0.009   c0.117-0.026,0.237-0.052,0.358-0.081c0.035-0.008,0.071-0.017,0.106-0.025c0.103-0.024,0.207-0.049,0.313-0.076   c0.044-0.011,0.089-0.022,0.134-0.034c0.099-0.025,0.199-0.051,0.3-0.078c0.05-0.013,0.101-0.027,0.152-0.041   c0.101-0.027,0.203-0.056,0.306-0.085c0.05-0.014,0.1-0.028,0.151-0.043c0.113-0.033,0.227-0.067,0.342-0.102   c0.042-0.013,0.083-0.025,0.125-0.038c0.158-0.049,0.318-0.1,0.48-0.154c0.003-0.001,0.006-0.002,0.01-0.003   c0.156-0.052,0.314-0.106,0.473-0.162c0.054-0.019,0.11-0.04,0.164-0.059c0.109-0.039,0.218-0.079,0.328-0.12   c0.066-0.025,0.133-0.05,0.199-0.076c0.101-0.039,0.203-0.078,0.305-0.119c0.07-0.028,0.14-0.056,0.21-0.085   c0.101-0.041,0.202-0.083,0.304-0.126c0.071-0.03,0.142-0.06,0.213-0.091c0.104-0.045,0.208-0.092,0.313-0.139   c0.069-0.031,0.138-0.062,0.208-0.094c0.113-0.052,0.227-0.106,0.341-0.161c0.061-0.029,0.121-0.057,0.182-0.087   c0.168-0.082,0.336-0.166,0.504-0.253c0.007-0.004,0.014-0.007,0.021-0.01c1.308-0.677,1.828-1.616,1.872-2.643   c0.132-3.083-4.018-6.965-4.018-6.965c0,0,2.809-0.31,6.103-0.958c0.347-0.068,0.699-0.14,1.054-0.216   c1.951-0.417,3.984-0.949,5.646-1.601c1.511-0.593,3.206-1.388,4.821-2.202c0.323-0.163,0.644-0.324,0.958-0.489   c1.412-0.741,3.321-2.831,3.321-2.831s0.649,0.238,0.647,1.218c-0.004,1.838,1.85,4.953,2.327,7.419   c0.095,0.493,0.207,0.962,0.336,1.393c0.068,0.226,0.142,0.439,0.221,0.642l0.974,39.958   C95.576,93.319,95.334,93.724,95.153,93.882z"/><polygon points="43.149,67.899 58.613,70.023 58.613,65.888 43.149,63.764  "/><polygon points="69.387,70.023 84.851,67.899 84.851,63.764 69.387,65.888  "/></g></svg>