<svg xmlns="http://www.w3.org/2000/svg" viewBox="0 0 64 80" fill="none" x="0px" y="0px"><path d="M50 25V27C48.8954 27 48 27.8954 48 29V49C48 49.968 48.6877 50.7753 49.6011 50.9602C48.8388 52.7473 47.0657 54 45 54H39.584C38.8124 52.2341 37.0503 51 35 51H31C28.2386 51 26 53.2386 26 56C26 58.7614 28.2386 61 31 61H35C37.0503 61 38.8124 59.7659 39.584 58H45C49.3413 58 52.9648 54.9262 53.8126 50.8361C58.4701 49.9834 62 45.9039 62 41V37C62 32.1621 58.5645 28.1266 54 27.2V25C54 12.8497 44.1503 3 32 3C19.8497 3 10 12.8497 10 25L10 27.2C5.43552 28.1266 2 32.1621 2 37V41C2 46.5228 6.47715 51 12 51H14C15.1046 51 16 50.1046 16 49L16 29C16 27.8954 15.1046 27 14 27L14 25C14 15.0589 22.0589 7 32 7C41.9411 7 50 15.0589 50 25Z" fill="black"/><path d="M31.6667 19C27.4204 19 24 22.461 24 26.7032C24 27.8078 24.8954 28.7032 26 28.7032C27.1046 28.7032 28 27.8078 28 26.7032C28 24.6458 29.6537 23 31.6667 23H32.1667C34.2717 23 36 24.7209 36 26.871C36 29.021 34.2717 30.7419 32.1667 30.7419H31.9279C30.8234 30.7419 29.9279 31.6374 29.9279 32.7419V37.1032C29.9279 38.2078 30.8234 39.1032 31.9279 39.1032C33.0325 39.1032 33.9279 38.2078 33.9279 37.1032V34.5424C37.4131 33.7386 40 30.6004 40 26.871C40 22.5361 36.505 19 32.1667 19H31.6667Z" fill="black"/><path d="M34 44.2258C34 43.1212 33.1046 42.2258 32 42.2258C30.8954 42.2258 30 43.1212 30 44.2258V45C30 46.1046 30.8954 47 32 47C33.1046 47 34 46.1046 34 45V44.2258Z" fill="black"/></svg>