<svg xmlns="http://www.w3.org/2000/svg" xmlns:xlink="http://www.w3.org/1999/xlink" version="1.1" x="0px" y="0px" viewBox="0 0 100 125" style="enable-background:new 0 0 100 100;" xml:space="preserve"><g><path d="M73.5126801,15.7262859H54.1605034c-1.0993652-1.0998535-2.5874023-1.7265625-4.1605225-1.7265625   c-1.5635986,0-3.0506592,0.6271973-4.1575928,1.7265625H26.4872875c-5.0610352,0-9.1787109,4.1152344-9.1787109,9.1728516   v51.9277344c0,5.0576172,4.1176758,9.1728516,9.1787109,9.1728516h47.0253906c5.0610352,0,9.1787109-4.1152344,9.1787109-9.1728516   V24.8991375C82.691391,19.8415203,78.5737152,15.7262859,73.5126801,15.7262859z M42.0361137,20.9040203h3.0668945   c0.5522461,0,1-0.4472656,1-1c0-0.9326172,0.3286133-1.8300781,0.925293-2.5273438   c0.7602539-0.8876953,1.8154297-1.3769531,2.9716797-1.3769531c1.1474609,0,2.2294922,0.5,2.9760742,1.3818359   c0.6005859,0.6914063,0.9311523,1.5878906,0.9311523,2.5224609c0,0.5527344,0.4477539,1,1,1h3.0566406   c1.815918,0,3.293457,1.4716797,3.293457,3.2802734c0,0.1855469-0.015625,0.3642578-0.0478516,0.5507813   c-0.2636719,1.5878906-1.628418,2.7402344-3.2456055,2.7402344H42.0361137c-1.6137695,0-2.9697266-1.1503906-3.234375-2.7900391   c-0.0327148-0.1494141-0.0488281-0.3134766-0.0488281-0.5009766C38.7529106,22.3757,40.2255669,20.9040203,42.0361137,20.9040203z    M72.5126801,73.7624207c0,1.1386719-0.9272461,2.0644531-2.0668945,2.0644531H29.5541821   c-1.1396484,0-2.0668945-0.9257813-2.0668945-2.0644531V27.9645672c0-1.1386719,0.9272461-2.0654297,2.0668945-2.0654297h7.4892559   c0.005249,0.0153809,0.0135498,0.0290527,0.0189209,0.0444336c0.0292969,0.0854492,0.0710449,0.1633301,0.1044922,0.246582   c0.0769043,0.1911621,0.1567383,0.3798828,0.2542725,0.5581055c0.0537109,0.0983887,0.1170654,0.1884766,0.1765137,0.2827148   c0.0958252,0.1513672,0.1936035,0.2998047,0.3037109,0.4396973c0.0733643,0.0930176,0.1522217,0.1794434,0.2314453,0.267334   c0.114624,0.126709,0.2325439,0.248291,0.3587646,0.3630371c0.0887451,0.0808105,0.1794434,0.1574707,0.2736816,0.2316895   c0.1334229,0.1057129,0.2718506,0.2026367,0.4152832,0.2949219c0.0999756,0.0644531,0.1990967,0.1279297,0.3034668,0.1853027   c0.154541,0.0852051,0.3151855,0.1574707,0.4785156,0.2268066c0.1048584,0.0446777,0.2067871,0.0927734,0.3146973,0.1306152   c0.1850586,0.0649414,0.3769531,0.1115723,0.5705566,0.1560059c0.095459,0.0217285,0.1870117,0.0517578,0.2843018,0.0683594   c0.2945557,0.050293,0.5955811,0.0805664,0.9040527,0.0805664h15.9277344c0.3082275,0,0.6094971-0.0300293,0.9040527-0.0803223   c0.0979004-0.0166016,0.1900635-0.0471191,0.2861328-0.0690918c0.1929932-0.0439453,0.3841553-0.090332,0.5687256-0.1547852   c0.1096191-0.0383301,0.2128906-0.0869141,0.3190918-0.1320801c0.1618652-0.0688477,0.3212891-0.1401367,0.4744873-0.2241211   c0.1068115-0.0585938,0.208252-0.1235352,0.3104248-0.189209c0.140625-0.0900879,0.2764893-0.1848145,0.4074707-0.2875977   c0.0983887-0.0771484,0.1928711-0.1567383,0.2854004-0.2407227c0.1210938-0.1098633,0.2346191-0.2260742,0.3452148-0.3469238   c0.0852051-0.0930176,0.1694336-0.1855469,0.2480469-0.2849121c0.1022949-0.1296387,0.1933594-0.2670898,0.2835693-0.4067383   c0.067749-0.1044922,0.1383057-0.2060547,0.1987305-0.315918c0.086792-0.157959,0.1572266-0.3256836,0.2280273-0.4936523   c0.043335-0.1032715,0.0948486-0.2011719,0.1317139-0.3076172c0.005127-0.0146484,0.0131836-0.027832,0.0181885-0.0424805   h7.4726601c1.1396484,0,2.0668945,0.9267578,2.0668945,2.0654297V73.7624207z"/><path d="M43.614727,33.4567528c-0.0004883,0-0.0004883,0-0.0004883,0c-0.8139648,0-1.5786133,0.3164063-2.1523438,0.8916016   l-3.5981445,3.5947266l-0.4458008-0.4453125c-1.1875-1.1875-3.1181641-1.1875-4.3056641,0   c-0.5751953,0.5751953-0.8920898,1.3388672-0.8916016,2.1523438c0,0.8134766,0.3168945,1.5771484,0.8916016,2.1503906   l2.5991211,2.5986328c0.5751953,0.5742188,1.3398438,0.890625,2.1523438,0.890625s1.5771484-0.3164063,2.152832-0.8916016   l5.7495117-5.7460938c0.5756836-0.5751953,0.8930664-1.3398438,0.8925781-2.1533203s-0.3173828-1.5771484-0.8916016-2.1494141   C45.192852,33.773159,44.4282036,33.4567528,43.614727,33.4567528z"/><path d="M41.4614067,46.8600731l-3.5976563,3.5947266l-0.4458008-0.4453125c-1.1875-1.1875-3.1181641-1.1875-4.3056641,0   c-0.5751953,0.5742188-0.8916016,1.3388672-0.8916016,2.1513672c0,0.8134766,0.3164063,1.578125,0.8916016,2.1523438   l2.5981445,2.5966797c0.574707,0.5751953,1.3393555,0.8916016,2.1533203,0.8916016s1.5786133-0.3164063,2.152832-0.8916016   l5.7490234-5.7460938c0.5756836-0.5742188,0.8925781-1.3378906,0.8930664-2.1513672s-0.3168945-1.578125-0.8916016-2.1523438   C44.6176567,45.7096825,42.6108208,45.7096825,41.4614067,46.8600731z"/><path d="M41.4614067,59.3717918l-3.5976563,3.5947266l-0.4458008-0.4453125c-1.1875-1.1875-3.1181641-1.1875-4.3056641,0   c-0.5751953,0.5742188-0.8916016,1.3388672-0.8916016,2.151371c0,0.8134766,0.3164063,1.578125,0.8916016,2.1523438   l2.5981445,2.5966797c0.574707,0.5751953,1.3393555,0.8916016,2.1533203,0.8916016s1.5786133-0.3164063,2.152832-0.8916016   l5.7495117-5.745121c0.5756836-0.5751953,0.8925781-1.3398438,0.8925781-2.1533203   c0-0.8125-0.3168945-1.5771484-0.8916016-2.1513672C44.6176567,58.2214012,42.6108208,58.2214012,41.4614067,59.3717918z"/><path d="M64.5307465,36.3297997H53.19627c-1.6542969,0-3,1.3457031-3,3.0859375c0,1.6542969,1.3457031,3,3,3h11.3344765   c1.6542969,0,3-1.3457031,3-3.0859375C67.5307465,37.6755028,66.1850433,36.3297997,64.5307465,36.3297997z"/><path d="M64.5307465,48.8415184H53.19627c-1.6542969,0-3,1.3457031-3,3.0869141c0,1.6542969,1.3457031,3,3,3h11.3344765   c1.6542969,0,3-1.3457031,3-3.0869141C67.5307465,50.1872215,66.1850433,48.8415184,64.5307465,48.8415184z"/><path d="M64.5307465,61.3532372H53.19627c-1.6542969,0-3,1.3457031-3,3.0869179c0,1.6542969,1.3457031,3,3,3h11.3344765   c1.6542969,0,3-1.3457031,3-3.0869141C67.5307465,62.6989403,66.1850433,61.3532372,64.5307465,61.3532372z"/></g></svg>